# xmcd
#
# Track frame offsets: 
#        150
#        17489
#        36423
#        57294
#        77495
#        93920
#        111043
#        132433
#        149699
#        170836
#        191627
#        210612
#        227518
#        241878
#
# Disc length: 3412 seconds
#
# Revision: 0
# Processed by: cddbd v1.5.2PL0 Copyright (c) Steve Scherf et al.
# Submitted via: ExactAudioCopy v0.95b4
#
DISCID=be0d520e
DTITLE=Cadillac Sky - Gravity's Our Enemy
DYEAR=2008
DGENRE=Bluegrass
TTITLE0=U Stay Gone
TTITLE1=Goodbye Story
TTITLE2=Bible By The Bed
TTITLE3=My Precious Waltz - I Hate How Happy She Is
TTITLE4=Baby Don't Cry
TTITLE5=Thank You Esteban
TTITLE6=Wouldn't Put It Past Love
TTITLE7=Inside Joke
TTITLE8=Everybody's Favorite
TTITLE9=The Wreck
TTITLE10=The Majestic Swan
TTITLE11=Carousel
TTITLE12=It Won't Be Over You
TTITLE13=2 Good 2 Last
EXTD=
EXTT0=
EXTT1=
EXTT2=
EXTT3=
EXTT4=
EXTT5=
EXTT6=
EXTT7=
EXTT8=
EXTT9=
EXTT10=
EXTT11=
EXTT12=
EXTT13=
PLAYORDER=
